<svg xmlns="http://www.w3.org/2000/svg" width="32" height="34.909" viewBox="0 0 32 34.909">
  <path id="iconmonstr-idea-1" d="M20.273,33.455l-1.728,1.137a1.348,1.348,0,0,1-.895.317h-1.3a1.354,1.354,0,0,1-.9-.317l-1.727-1.137Zm.061-2.909a.727.727,0,0,1,0,1.455H13.7a.727.727,0,1,1,0-1.455Zm.719-1.455h-8.1c0-5.744-4.675-8.231-4.675-13.423,0-5.415,4.361-8.4,8.723-8.4s8.732,2.985,8.732,8.4c0,5.191-4.675,7.6-4.675,13.423m7.2-10.515,3.926,1.78-1.2,2.65L27.2,21.295a14.159,14.159,0,0,0,1.053-2.719m-22.512,0A13.743,13.743,0,0,0,6.791,21.3L3.02,23.007l-1.2-2.65,3.927-1.78Zm22.618-5.485H33V16H28.632a11.781,11.781,0,0,0-.269-2.909m-22.727,0a12.006,12.006,0,0,0-.268,2.9V16H1V13.091ZM25.79,8.1,29.4,5.54l1.684,2.372L27.445,10.5A10.591,10.591,0,0,0,25.79,8.1M8.209,8.1A10.644,10.644,0,0,0,6.553,10.5L2.913,7.913,4.6,5.54Zm12.9-3.043,1.93-3.913,2.608,1.287-1.93,3.913A11.856,11.856,0,0,0,21.109,5.06m-8.22,0A11.8,11.8,0,0,0,10.28,6.343L8.351,2.435l2.609-1.287,1.929,3.91Zm5.565-.605a12.392,12.392,0,0,0-2.909,0V0h2.909Z" transform="translate(-1)" fill="#ecfffb" fill-rule="evenodd"/>
</svg>
