<svg xmlns="http://www.w3.org/2000/svg" xmlns:xlink="http://www.w3.org/1999/xlink" width="75" height="75" viewBox="0 0 75 75">
  <defs>
    <linearGradient id="linear-gradient" x1="-0.04" x2="1" y2="1" gradientUnits="objectBoundingBox">
      <stop offset="0" stop-color="#00a295"/>
      <stop offset="1" stop-color="#5dd98a"/>
    </linearGradient>
  </defs>
  <path id="iconmonstr-instagram-11" d="M37.5,6.759c10.013,0,11.2.037,15.156.219,10.163.462,14.909,5.284,15.372,15.372.181,3.953.216,5.141.216,15.153s-.037,11.2-.216,15.153c-.466,10.078-5.2,14.909-15.372,15.372-3.956.181-5.138.219-15.156.219s-11.2-.037-15.153-.219C12.159,67.563,7.437,62.719,6.975,52.653,6.794,48.7,6.756,47.516,6.756,37.5s.041-11.2.219-15.153c.466-10.084,5.2-14.909,15.372-15.372C26.3,6.8,27.487,6.759,37.5,6.759ZM37.5,0C27.316,0,26.041.044,22.041.225,8.422.85.853,8.406.228,22.038.044,26.041,0,27.316,0,37.5S.044,48.962.225,52.962C.85,66.581,8.406,74.15,22.038,74.775c4,.181,5.278.225,15.462.225s11.462-.044,15.462-.225c13.606-.625,21.194-8.181,21.809-21.812.184-4,.228-5.278.228-15.462s-.044-11.459-.225-15.459C74.162,8.434,66.6.853,52.966.228,48.962.044,47.684,0,37.5,0Zm0,18.244A19.258,19.258,0,1,0,56.756,37.5,19.257,19.257,0,0,0,37.5,18.244ZM37.5,50A12.5,12.5,0,1,1,50,37.5,12.5,12.5,0,0,1,37.5,50ZM57.519,12.984a4.5,4.5,0,1,0,4.5,4.5A4.5,4.5,0,0,0,57.519,12.984Z" fill="url(#linear-gradient)"/>
</svg>
