<svg xmlns="http://www.w3.org/2000/svg" width="32" height="31.999" viewBox="0 0 32 31.999">
  <path id="iconmonstr-wrench-1" d="M6,.343l5.028,5.028c.545,2.519-3.107,6.213-5.656,5.656L.344,6A8.459,8.459,0,0,0,0,8.389a8.355,8.355,0,0,0,9.014,8.329,4.278,4.278,0,0,1,3.352,1.241L25.249,30.842a3.955,3.955,0,0,0,5.593-5.593L17.96,12.365a4.281,4.281,0,0,1-1.241-3.352A8.352,8.352,0,0,0,8.388,0,8.5,8.5,0,0,0,6,.343ZM29.333,28A1.333,1.333,0,1,1,28,26.666,1.332,1.332,0,0,1,29.333,28Z" fill="#ecfffb"/>
</svg>
