<svg xmlns="http://www.w3.org/2000/svg" xmlns:xlink="http://www.w3.org/1999/xlink" width="75" height="73.151" viewBox="0 0 75 73.151">
  <defs>
    <linearGradient id="linear-gradient" x2="1" y2="1" gradientUnits="objectBoundingBox">
      <stop offset="0" stop-color="#00a295"/>
      <stop offset="1" stop-color="#5dd98a"/>
    </linearGradient>
  </defs>
  <path id="iconmonstr-github-1" d="M37.5,0A37.5,37.5,0,0,0,25.647,73.084c1.872.347,2.478-.816,2.478-1.8V64.3c-10.431,2.269-12.6-4.425-12.6-4.425-1.706-4.334-4.166-5.488-4.166-5.488-3.4-2.328.259-2.278.259-2.278,3.766.263,5.747,3.866,5.747,3.866,3.344,5.731,8.772,4.075,10.913,3.116a7.956,7.956,0,0,1,2.381-5.012c-8.328-.953-17.084-4.169-17.084-18.534a14.514,14.514,0,0,1,3.863-10.066,13.488,13.488,0,0,1,.366-9.925s3.15-1.006,10.316,3.844a35.544,35.544,0,0,1,18.778,0c7.159-4.85,10.3-3.844,10.3-3.844a13.476,13.476,0,0,1,.369,9.925,14.475,14.475,0,0,1,3.859,10.066c0,14.4-8.772,17.575-17.122,18.5,1.344,1.163,2.572,3.444,2.572,6.944V71.281c0,1,.6,2.169,2.5,1.8A37.507,37.507,0,0,0,37.5,0Z" fill="url(#linear-gradient)"/>
</svg>
